<?xml version="1.0" encoding="UTF-8"?>
<!DOCTYPE svg PUBLIC "-//W3C//DTD SVG 1.1//EN" "http://www.w3.org/Graphics/SVG/1.1/DTD/svg11.dtd">
<svg version="1.1" xmlns="http://www.w3.org/2000/svg" xmlns:xlink="http://www.w3.org/1999/xlink" x="0" y="0" width="35" height="35" viewBox="0, 0, 35, 35">
  <g id="Layer_1">
    <path d="M12.705,6.032 C12.622,6.649 12.651,6.435 12.619,6.675 C11.314,6.799 10.015,6.961 8.727,7.204 L5.436,9.506 L29.52,9.251 L26.216,7.204 C22.615,6.701 23.895,6.786 22.401,6.696 L22.312,6.06 C24.309,6.166 22.772,6.068 26.901,6.582 L30.808,9.237 L29.118,20.362 C29.118,20.362 29.713,34.925 29.713,34.925 C29.63,35.051 4.333,34.981 4.333,34.981 L5.46,20.644 L4.192,9.519 L4.192,9.519 L8.042,6.582 C9.588,6.357 11.143,6.105 12.705,6.032 z"/>
    <path d="M19.075,5.887 L21.388,6.011 L21.475,6.64 L19.196,6.504 L17.435,6.532 C15.056,6.49 16.357,6.476 13.534,6.619 C13.548,6.37 13.535,6.581 13.603,5.99 C16.329,5.862 15.054,5.875 17.426,5.916 L19.075,5.887 z"/>
    <path d="M21.523,9.633 C21.523,9.633 23.025,2.387 17.5,2.574 C11.975,2.387 13.554,9.633 13.554,9.633 C13.554,9.633 12.847,9.633 12.847,9.633 C12.847,9.633 11.533,1.807 17.5,2.01 C23.468,1.807 22.153,9.633 22.153,9.633 L21.497,9.633"/>
    <path d="M20.76,6.182 C20.76,6.182 21.978,0.309 17.5,0.461 C13.022,0.309 14.302,6.182 14.302,6.182 C14.302,6.182 13.729,6.182 13.729,6.182 C13.729,6.182 12.663,-0.161 17.5,0.003 C22.337,-0.161 21.271,6.182 21.271,6.182 L20.74,6.182"/>
  </g>
</svg>
