<?xml version="1.0" encoding="UTF-8"?>
<!DOCTYPE svg PUBLIC "-//W3C//DTD SVG 1.1//EN" "http://www.w3.org/Graphics/SVG/1.1/DTD/svg11.dtd">
<svg version="1.1" xmlns="http://www.w3.org/2000/svg" xmlns:xlink="http://www.w3.org/1999/xlink" x="0" y="0" width="72" height="72" viewBox="0, 0, 72, 72">
  <g id="Layer_1">
    <path d="M14.998,34.551 C20.208,31.946 21.551,36.209 21.551,36.209 C26.367,49.631 27.314,58.71 27.314,58.71 C29.051,65.737 22.103,65.105 22.103,65.105 C22.103,65.105 14.998,34.551 14.998,34.551" fill="#E21717"/>
    <path d="M35.784,9.453 C5.778,12.569 10.508,39.513 10.531,39.742 C10.95,43.805 12.866,35.577 12.866,35.577 C12.866,35.577 18.787,56.687 19.814,65.12 C14.919,60.792 13.419,60.763 8.602,53.026 C8.524,52.947 -5.206,7.847 35.764,4.5 C76.735,7.847 63.281,52.947 63.202,53.026 C58.386,60.763 56.886,60.792 51.991,65.12 C53.017,56.687 58.938,35.577 58.938,35.577 C58.938,35.577 60.854,43.805 61.273,39.742 C61.297,39.513 65.902,12.569 35.896,9.453" fill="#E21717"/>
    <path d="M56.836,34.551 C51.625,31.946 50.283,36.209 50.283,36.209 C45.467,49.631 44.519,58.71 44.519,58.71 C42.782,65.737 49.73,65.105 49.73,65.105 C49.73,65.105 56.836,34.551 56.836,34.551" fill="#E21717"/>
  </g>
</svg>
