<?xml version="1.0" encoding="UTF-8"?>
<!DOCTYPE svg PUBLIC "-//W3C//DTD SVG 1.1//EN" "http://www.w3.org/Graphics/SVG/1.1/DTD/svg11.dtd">
<svg version="1.1" xmlns="http://www.w3.org/2000/svg" xmlns:xlink="http://www.w3.org/1999/xlink" x="0" y="0" width="70" height="70" viewBox="0, 0, 70, 70">
  <g id="Layer_1">
    <path d="M10.917,34.701 C16.934,31.692 18.484,36.615 18.484,36.615 C24.045,52.114 25.139,62.598 25.139,62.598 C27.145,70.712 19.122,69.983 19.122,69.983 C19.122,69.983 10.917,34.701 10.917,34.701"/>
    <path d="M34.919,5.719 C0.27,9.317 5.732,40.43 5.759,40.695 C6.242,45.387 8.455,35.886 8.455,35.886 C8.455,35.886 15.293,60.262 16.478,70 C10.825,65.003 9.093,64.969 3.532,56.034 C3.441,55.943 -12.413,3.865 34.897,0 C82.207,3.865 66.671,55.943 66.58,56.034 C61.019,64.969 59.287,65.003 53.634,70 C54.819,60.262 61.657,35.886 61.657,35.886 C61.657,35.886 63.87,45.387 64.353,40.695 C64.38,40.43 69.698,9.317 35.048,5.719"/>
    <path d="M59.229,34.701 C53.212,31.692 51.662,36.615 51.662,36.615 C46.101,52.114 45.007,62.598 45.007,62.598 C43.001,70.712 51.024,69.983 51.024,69.983 C51.024,69.983 59.229,34.701 59.229,34.701"/>
  </g>
</svg>
