<?xml version="1.0" encoding="UTF-8"?>
<!DOCTYPE svg PUBLIC "-//W3C//DTD SVG 1.1//EN" "http://www.w3.org/Graphics/SVG/1.1/DTD/svg11.dtd">
<svg version="1.1" xmlns="http://www.w3.org/2000/svg" xmlns:xlink="http://www.w3.org/1999/xlink" x="0" y="0" width="35" height="35" viewBox="0, 0, 35, 35">
  <g id="Layer_1">
    <path d="M6.772,17.367 C9.452,16.027 10.143,18.22 10.143,18.22 C12.62,25.124 13.107,29.794 13.107,29.794 C14.001,33.408 10.427,33.084 10.427,33.084 C10.427,33.084 6.772,17.367 6.772,17.367"/>
    <path d="M17.464,4.456 C2.029,6.059 4.462,19.919 4.474,20.037 C4.69,22.127 5.675,17.895 5.675,17.895 C5.675,17.895 8.721,28.753 9.249,33.091 C6.731,30.865 5.96,30.85 3.482,26.87 C3.442,26.829 -3.621,3.63 17.454,1.909 C38.529,3.63 31.608,26.829 31.568,26.87 C29.09,30.85 28.319,30.865 25.801,33.091 C26.329,28.753 29.375,17.895 29.375,17.895 C29.375,17.895 30.36,22.127 30.576,20.037 C30.588,19.919 32.957,6.059 17.522,4.456"/>
    <path d="M28.293,17.367 C25.613,16.027 24.922,18.22 24.922,18.22 C22.445,25.124 21.958,29.794 21.958,29.794 C21.064,33.408 24.638,33.084 24.638,33.084 C24.638,33.084 28.293,17.367 28.293,17.367"/>
  </g>
</svg>
